<svg width="24" height="25" viewBox="0 0 24 25" fill="none" xmlns="http://www.w3.org/2000/svg">
<g clip-path="url(#clip0_4104_277)">
<path d="M8.99998 1.375V3.375H15V1.375H17V3.375H21C21.5523 3.375 22 3.82272 22 4.375V20.375C22 20.9273 21.5523 21.375 21 21.375H3.00001C2.44772 21.375 2 20.9273 2 20.375V4.375C2 3.82272 2.44772 3.375 3.00001 3.375H7V1.375H8.99998ZM20 8.37503H4V19.375H20V8.37503ZM15.0355 10.511L16.4497 11.9253L11.5 16.875L7.96446 13.3395L9.37866 11.9253L11.5 14.0466L15.0355 10.511Z" fill="#6A34FF"/>
</g>
<defs>
<clipPath id="clip0_4104_277">
<rect width="24" height="24.75" fill="white"/>
</clipPath>
</defs>
</svg>
